<?xml version="1.0" standalone="no"?>
<!DOCTYPE svg PUBLIC "-//W3C//DTD SVG 20010904//EN"
 "http://www.w3.org/TR/2001/REC-SVG-20010904/DTD/svg10.dtd">
<svg version="1.0" xmlns="http://www.w3.org/2000/svg"
 width="512.000000pt" height="512.000000pt" viewBox="0 0 512.000000 512.000000"
 preserveAspectRatio="xMidYMid meet">

<g transform="translate(0.000000,512.000000) scale(0.100000,-0.100000)"
fill="#000000" stroke="none">
<path d="M1600 4775 l0 -345 275 0 275 0 0 115 0 115 -160 0 -160 0 0 115 0
115 160 0 160 0 0 115 0 115 -275 0 -275 0 0 -345z"/>
<path d="M2260 4895 l0 -225 160 0 c153 0 160 -1 160 -20 0 -19 -7 -20 -160
-20 l-160 0 0 -105 0 -105 275 0 275 0 0 230 0 230 -160 0 c-153 0 -160 1
-160 20 0 19 7 20 160 20 l160 0 0 100 0 100 -275 0 -275 0 0 -225z"/>
<path d="M2920 4895 l0 -225 160 0 c153 0 160 -1 160 -20 0 -19 -7 -20 -160
-20 l-160 0 0 -105 0 -105 275 0 275 0 0 230 0 230 -160 0 c-153 0 -160 1
-160 20 0 19 7 20 160 20 l160 0 0 100 0 100 -275 0 -275 0 0 -225z"/>
<path d="M750 4098 c1 -40 328 -3680 332 -3683 2 -2 335 -96 740 -208 l737
-205 738 205 c405 112 739 206 741 208 3 3 331 3645 332 3683 0 9 -369 12
-1810 12 -1441 0 -1810 -3 -1810 -12z m2944 -790 c-3 -29 -49 -549 -103 -1156
-55 -607 -101 -1105 -104 -1108 -2 -3 -212 -63 -465 -133 l-461 -128 -463 129
c-254 71 -465 133 -468 138 -3 5 -18 155 -34 332 -15 178 -29 335 -32 351 l-6
27 230 0 230 0 6 -37 c3 -21 11 -101 17 -178 6 -77 14 -143 18 -147 3 -3 117
-36 252 -72 l246 -66 249 67 c137 36 251 68 252 69 5 3 52 507 52 552 l0 32
-785 0 c-717 0 -785 1 -785 16 0 25 -29 353 -36 401 l-5 43 828 2 828 3 17
180 c9 99 17 201 17 228 l1 47 -865 0 c-685 0 -865 3 -865 13 0 6 -9 107 -20
222 -11 116 -20 213 -20 218 0 4 513 7 1140 7 l1140 0 -6 -52z"/>
</g>
</svg>
