<?xml version="1.0" standalone="no"?>
<!DOCTYPE svg PUBLIC "-//W3C//DTD SVG 20010904//EN"
 "http://www.w3.org/TR/2001/REC-SVG-20010904/DTD/svg10.dtd">
<svg version="1.0" xmlns="http://www.w3.org/2000/svg"
 width="512.000000pt" height="512.000000pt" viewBox="0 0 512.000000 512.000000"
 preserveAspectRatio="xMidYMid meet">

<g transform="translate(0.000000,512.000000) scale(0.100000,-0.100000)"
fill="#000000" stroke="none">
<path d="M1080 4775 l0 -345 120 0 120 0 0 115 0 115 105 0 105 0 0 -115 0
-115 115 0 115 0 0 345 0 345 -115 0 -114 0 -3 -112 -3 -113 -105 0 -105 0 -3
113 -3 112 -114 0 -115 0 0 -345z"/>
<path d="M1860 5005 l0 -115 100 0 100 0 0 -230 0 -230 115 0 115 0 0 230 0
230 100 0 100 0 0 115 0 115 -315 0 -315 0 0 -115z"/>
<path d="M2590 4775 l0 -345 115 0 115 0 0 166 c0 91 3 163 8 161 4 -3 39 -55
77 -116 39 -60 73 -109 77 -108 4 1 41 54 82 117 l76 115 0 -167 0 -168 115 0
115 0 0 345 0 345 -119 0 -120 0 -65 -107 c-36 -60 -70 -114 -75 -122 -6 -10
-28 19 -81 108 l-73 121 -123 0 -124 0 0 -345z"/>
<path d="M3490 4775 l0 -345 275 0 275 0 0 115 0 115 -160 0 -160 0 0 230 0
230 -115 0 -115 0 0 -345z"/>
<path d="M755 4053 c3 -32 78 -863 165 -1847 88 -984 161 -1790 162 -1792 7
-6 1464 -407 1478 -406 14 0 1472 402 1478 407 1 1 74 809 162 1796 88 987
162 1818 165 1847 l6 52 -1811 0 -1811 0 6 -57z m3280 -290 c-9 -70 -275
-3060 -275 -3087 0 -20 -37 -32 -587 -185 -324 -90 -594 -166 -600 -169 -10
-3 -13 46 -13 227 l0 230 -48 14 c-26 8 -236 67 -468 132 l-420 117 -27 317
c-16 174 -31 335 -34 359 l-5 42 231 0 c127 0 231 -1 232 -2 1 -2 9 -84 18
-182 l16 -179 120 -32 c66 -18 180 -48 253 -68 l132 -35 0 359 0 359 -510 0
c-280 0 -510 3 -510 8 0 4 -27 304 -60 667 -33 363 -60 670 -60 683 l0 22 570
0 570 0 0 225 0 225 740 0 741 0 -6 -47z"/>
<path d="M1925 2863 c6 -47 35 -377 35 -403 0 -19 9 -20 300 -20 l300 0 0 230
0 230 -320 0 -320 0 5 -37z"/>
</g>
</svg>
