<?xml version="1.0" standalone="no"?>
<!DOCTYPE svg PUBLIC "-//W3C//DTD SVG 20010904//EN"
 "http://www.w3.org/TR/2001/REC-SVG-20010904/DTD/svg10.dtd">
<svg version="1.0" xmlns="http://www.w3.org/2000/svg"
 width="512.000000pt" height="512.000000pt" viewBox="0 0 512.000000 512.000000"
 preserveAspectRatio="xMidYMid meet">

<g transform="translate(0.000000,512.000000) scale(0.100000,-0.100000)"
fill="#000000" stroke="none">
<path d="M3315 4706 c-37 -16 -53 -35 -65 -75 -15 -52 13 -120 86 -213 78 -99
87 -114 109 -198 22 -83 107 -263 146 -313 l30 -38 -15 -47 c-46 -138 -60
-351 -30 -453 46 -155 130 -241 202 -207 29 14 53 68 72 161 6 31 15 57 19 57
4 0 15 -17 25 -37 60 -127 210 -309 286 -348 26 -13 19 -2 -43 74 -91 112
-195 284 -239 396 -18 47 -36 85 -39 85 -10 0 -54 -72 -73 -119 -9 -24 -21
-80 -27 -125 -6 -44 -12 -82 -14 -84 -9 -10 -67 43 -84 76 -59 118 -63 336
-10 491 28 79 25 111 -15 157 -44 52 -60 84 -112 232 -50 141 -76 193 -136
272 -45 59 -88 136 -88 156 0 22 30 44 59 44 46 0 110 -27 203 -86 78 -49 94
-55 170 -65 136 -16 192 -36 297 -107 196 -132 304 -239 421 -417 55 -85 191
-358 255 -512 23 -57 50 -105 70 -125 28 -27 103 -60 236 -104 15 -5 15 -1 6
36 -13 45 -40 65 -124 90 -41 13 -42 14 -131 189 -49 97 -114 230 -143 296
-68 152 -125 238 -241 360 -203 214 -424 345 -611 361 -59 5 -82 13 -124 41
-105 68 -215 113 -278 112 -11 0 -34 -6 -50 -13z"/>
<path d="M3698 4345 c-4 -4 8 -26 27 -50 18 -24 35 -49 37 -56 2 -7 10 -9 16
-5 18 11 14 61 -5 84 -19 22 -64 38 -75 27z"/>
<path d="M5012 3001 c-87 -30 -91 -39 -47 -105 30 -45 118 -126 138 -126 15 0
-9 99 -30 124 -24 28 -24 30 -6 37 15 5 18 15 15 48 -2 23 -7 41 -11 41 -3 -1
-30 -9 -59 -19z"/>
<path d="M2691 2619 c-159 -28 -256 -118 -282 -260 -31 -172 46 -281 295 -420
212 -120 260 -186 226 -311 -14 -48 -55 -97 -97 -114 -67 -29 -248 -9 -364 40
l-36 15 -21 -45 c-12 -24 -22 -48 -22 -53 0 -14 111 -68 188 -91 62 -19 90
-21 185 -18 147 6 210 29 287 107 94 95 136 255 92 354 -42 94 -146 180 -312
257 -89 41 -146 74 -178 104 -34 30 -62 89 -62 128 0 47 39 119 78 145 62 41
188 42 312 4 l61 -19 20 46 20 47 -25 22 c-60 51 -248 83 -365 62z"/>
<path d="M3655 2620 c-130 -27 -233 -99 -302 -210 -21 -35 -65 -149 -77 -203
-17 -73 -24 -228 -16 -326 17 -185 60 -300 147 -392 59 -62 135 -102 223 -119
66 -12 182 -13 235 0 39 9 45 6 184 -75 79 -47 146 -85 150 -85 4 0 21 29 39
65 l32 66 -100 48 c-55 27 -105 51 -112 54 -9 3 1 18 26 43 118 118 175 319
163 577 -9 195 -54 335 -138 430 -90 103 -293 160 -454 127z m210 -159 c129
-58 197 -260 181 -534 -15 -247 -79 -373 -210 -412 -63 -19 -99 -19 -165 1
-102 30 -165 118 -197 274 -24 118 -16 376 15 472 48 150 131 218 265 218 47
0 85 -7 111 -19z"/>
<path d="M4440 1990 l0 -620 190 0 190 0 35 70 c19 38 35 72 35 75 0 3 -58 5
-130 5 l-130 0 0 545 0 545 -95 0 -95 0 0 -620z"/>
</g>
</svg>
