<?xml version="1.0" standalone="no"?>
<!DOCTYPE svg PUBLIC "-//W3C//DTD SVG 20010904//EN"
 "http://www.w3.org/TR/2001/REC-SVG-20010904/DTD/svg10.dtd">
<svg version="1.0" xmlns="http://www.w3.org/2000/svg"
 width="512.000000pt" height="512.000000pt" viewBox="0 0 512.000000 512.000000"
 preserveAspectRatio="xMidYMid meet">

<g transform="translate(0.000000,512.000000) scale(0.100000,-0.100000)"
fill="#000000" stroke="none">
<path d="M998 4150 c-395 -31 -648 -211 -714 -507 -23 -103 -15 -246 21 -368
58 -199 208 -449 401 -666 l41 -46 151 149 152 149 -51 58 c-136 155 -264 373
-295 503 -52 215 76 308 423 309 102 0 196 -7 290 -21 76 -11 146 -22 157 -23
16 -2 23 18 51 146 19 81 41 171 49 199 8 29 14 54 12 55 -2 2 -48 12 -102 23
-195 37 -425 53 -586 40z"/>
<path d="M2091 3938 c-17 -52 -81 -331 -81 -353 0 -17 26 -30 153 -77 283
-106 595 -257 882 -428 72 -43 132 -77 134 -75 11 12 -52 502 -67 516 -36 35
-507 265 -697 341 -137 55 -285 108 -300 108 -8 0 -18 -15 -24 -32z"/>
<path d="M3603 3143 c4 -38 12 -158 18 -268 9 -173 13 -202 29 -215 9 -8 38
-32 64 -54 41 -34 48 -37 64 -25 49 39 208 190 243 231 l39 47 -88 74 c-104
88 -353 277 -366 277 -5 0 -6 -30 -3 -67z"/>
<path d="M2495 2978 c-276 -35 -439 -351 -314 -606 155 -317 609 -308 762 16
30 62 32 75 32 173 0 101 -1 108 -37 180 -83 168 -256 261 -443 237z"/>
<path d="M1207 2416 c-81 -78 -147 -147 -147 -152 0 -22 453 -375 465 -363 1
2 -1 40 -5 84 -5 44 -12 165 -16 268 l-7 188 -56 47 c-31 26 -63 53 -72 60
-13 10 -38 -10 -162 -132z"/>
<path d="M4221 2404 l-143 -144 26 -33 c213 -262 309 -435 323 -581 7 -82 -8
-127 -59 -170 -114 -98 -416 -121 -746 -57 l-92 18 -5 -21 c-3 -12 -16 -73
-30 -136 -14 -63 -33 -145 -43 -182 l-19 -66 91 -17 c318 -59 606 -60 825 -4
252 64 438 245 486 474 56 268 -70 596 -372 963 -46 56 -87 102 -91 101 -4 -1
-72 -66 -151 -145z"/>
<path d="M1936 2102 c2 -15 8 -79 14 -142 10 -110 35 -302 45 -346 6 -29 418
-235 660 -332 180 -71 343 -132 355 -132 16 0 106 388 93 400 -4 4 -48 22 -98
40 -288 105 -669 292 -955 470 -122 75 -117 73 -114 42z"/>
</g>
</svg>
